# xmcd
#
# Track frame offsets:
#	150
#	23277
#	48250
#	67291
#	92576
#	110011
#	120314
#	143282
#	166134
#	184032
#	200164
#	206464
#	223482
#
# Disc length: 3325 seconds
#
# Revision: 0
# Processed by: cddbd v1.5.1PL0 Copyright (c) Steve Scherf et al.
# Submitted via: EasyCDDAExtractor 8.0.1.1
#
DISCID=b50cfb0d
DTITLE=Al Loar Zu - War Sao
DYEAR=1900
DGENRE=
TTITLE0=Mallozh graet ! (malédiction)
TTITLE1=Skein ! (frappe)
TTITLE2=Amzer-dremenet (passé)
TTITLE3=Murf is raide (scottish)
TTITLE4=Paourkaezh den (pauvre gars)
TTITLE5=Paourkaezh den
TTITLE6=Paourkaezh den
TTITLE7=Bordel de mer
TTITLE8=Valse an ti man
TTITLE9=D'arger ! (à la maison)
TTITLE10=D'arger
TTITLE11=D'arger
TTITLE12=War sao (debout)
EXTD=
EXTT0=
EXTT1=
EXTT2=
EXTT3=
EXTT4=
EXTT5=
EXTT6=
EXTT7=
EXTT8=
EXTT9=
EXTT10=
EXTT11=
EXTT12=
PLAYORDER=
